<?xml version="1.0" encoding="UTF-8"?>
<svg xmlns="http://www.w3.org/2000/svg" version="1.1" viewBox="0 0 867.8 979.8" x="0px" y="0px" xml:space="preserve">
	<g transform="translate(-66.1,-10.2)" fill="#555">
		<path d="m879 360.5h-23.5v-113.5c0-0.7-0.1-1.4-0.2-2.1 0-4.5-1.5-8.9-4.6-12.4l-188.9-215.9c-0.1-0.1-0.1-0.1-0.2-0.1-1.1-1.3-2.4-2.3-3.8-3.2-0.4-0.3-0.8-0.5-1.3-0.7-1.2-0.7-2.5-1.2-3.8-1.6-0.4-0.1-0.7-0.2-1-0.3-1.4-0.3-2.9-0.5-4.4-0.5h-464.4c-21.2 0-38.4 17.2-38.4 38.4v312.1h-23.5c-30.3 0-54.9 24.6-54.9 54.9v285.6c0 30.3 24.6 54.9 54.9 54.9h23.5v195.5c0 21.2 17.2 38.4 38.4 38.4h634.1c21.2 0 38.4-17.2 38.4-38.4v-195.6h23.6c30.3 0 54.9-24.6 54.9-54.9v-285.6c0-30.4-24.6-55-54.9-55zm-696.1-312.1h445.2v196.6c0 10.6 8.6 19.2 19.2 19.2h169.8v96.3h-634.2zm500.8 451.1c0 25.6-8.5 47.3-24 62-20.2 19-50 27.6-84.9 27.6-7.8 0-14.7-0.4-20.2-1.1v93.4h-58.6v-257.9c18.2-3.1 43.8-5.5 79.9-5.5 36.5 0 62.4 7 79.9 21 16.7 13.2 27.9 34.9 27.9 60.5zm-521.7 181.9 16.7-261.4h78.7l25.6 87.3c8.2 30.2 16.3 62.8 22.1 93.5h1.2c7.4-30.2 16.3-64.7 24.8-93.8l27.9-87h77.2l14.3 261.4h-57.8l-3.9-100c-1.2-31.4-2.3-69.5-2.3-107.5h-1.2c-8.2 33.4-19 70.6-29.1 101.3l-31.8 102h-46.2l-27.9-101.3c-8.5-30.6-17.5-67.9-23.7-102h-0.6c-1.5 35.3-2.7 75.6-4.6 108.2l-4.7 99.3zm655.1 259.8h-634.2v-185.2h634.1v185.2zm-31.7-255.6c-32.6 0-60.1-8.5-74.9-17.8l12-44.2c10.5 5.4 34.5 15.5 58.6 15.5 30.6 0 46.1-14.7 46.1-33.7 0-24.8-24.8-36.1-50.8-36.1h-24.1v-42.3h22.9c19.8-0.4 45-7.7 45-29.1 0-15.1-12.4-26.3-37.2-26.3-20.6 0-42.3 8.9-52.7 15.1l-12-42.7c15.1-9.7 45.4-19 78-19 53.9 0 83.8 28.3 83.8 62.8 0 26.7-15.1 47.7-46.2 58.6v0.8c30.3 5.4 54.7 28.3 54.7 61.3-0.1 44.6-39.3 77.1-103.2 77.1z"/>
		<path d="m579 462.7c-12 0-20.2 1.1-24.4 2.3v77.2c5 1.1 11.3 1.6 19.8 1.6 31.4 0 50.8-15.9 50.8-42.7 0-24.1-16.7-38.4-46.2-38.4z"/>
	</g>
</svg>
