<svg width="600" height="600" viewBox="0 0 600 600" fill="none" xmlns="http://www.w3.org/2000/svg">
<rect width="600" height="600" transform="translate(0 0.000488281)" fill="white"/>
<path d="M219.278 277.572C204.448 257.064 175.214 243.602 147.974 243.602C102.963 243.602 61.1061 271.253 61.1061 347.133V474.348C61.1061 482.97 68.0996 489.911 76.7219 489.911C85.3493 489.911 92.3429 482.918 92.3429 474.348V347.133C92.3273 289.465 120.156 274.785 147.974 274.785C175.792 274.785 203.61 297.909 203.61 336.936V474.348C203.61 482.97 210.604 489.911 219.226 489.911H219.293H219.361C227.983 489.911 234.977 482.97 234.977 474.348V336.936C234.977 297.909 262.795 274.785 290.613 274.785C308.274 274.785 346.244 282.629 346.244 336.936L347.3 383.087C347.3 468.364 404.539 489.911 440.964 489.911C477.389 489.911 531.953 464.752 533.066 389.301V268.564C533.066 247.795 501.741 247.795 501.741 268.564V389.301C501.741 446.54 459.176 458.732 440.964 458.732C422.752 458.732 378.522 450.152 378.522 383.087L377.481 339.461C377.481 274.778 336.893 241 290.613 241C263.373 241 234.108 257.064 219.278 277.572Z" fill="#1F74BD"/>
<path d="M375.101 199.372C375.101 168.151 398.096 134.328 437.856 134.328C477.616 134.328 500.533 168.151 500.533 199.372C500.533 222.788 531.827 222.788 531.827 199.372C531.827 144.735 490.625 103.107 437.856 103.107C385.087 103.107 343.896 144.735 343.896 199.372C343.901 222.788 375.101 222.788 375.101 199.372Z" fill="#1F74BD"/>
<path d="M461.475 200.243C461.475 188.858 452.255 179.637 440.869 179.637C429.484 179.637 420.263 188.858 420.263 200.243C420.263 211.629 429.484 220.849 440.869 220.849C452.255 220.849 461.475 211.629 461.475 200.243Z" fill="#1F74BD"/>
</svg>
