<?xml version="1.0" encoding="UTF-8" standalone="no"?>
<svg
   xmlns:dc="http://purl.org/dc/elements/1.1/"
   xmlns:cc="http://creativecommons.org/ns#"
   xmlns:rdf="http://www.w3.org/1999/02/22-rdf-syntax-ns#"
   xmlns:svg="http://www.w3.org/2000/svg"
   xmlns="http://www.w3.org/2000/svg"
   xmlns:sodipodi="http://sodipodi.sourceforge.net/DTD/sodipodi-0.dtd"
   xmlns:inkscape="http://www.inkscape.org/namespaces/inkscape"
   version="1.1"
   viewBox="0 0 17.112286 23.806931"
   id="svg18"
   sodipodi:docname="media-playback-metronome.svg"
   width="17.112286"
   height="23.806931"
   inkscape:version="1.0.2 (e86c8708, 2021-01-15)">
  <metadata
     id="metadata24">
    <rdf:RDF>
      <cc:Work
         rdf:about="">
        <dc:format>image/svg+xml</dc:format>
        <dc:type
           rdf:resource="http://purl.org/dc/dcmitype/StillImage" />
        <dc:title></dc:title>
      </cc:Work>
    </rdf:RDF>
  </metadata>
  <defs
     id="defs22" />
  <sodipodi:namedview
     pagecolor="#ffffff"
     bordercolor="#666666"
     borderopacity="1"
     objecttolerance="10"
     gridtolerance="10"
     guidetolerance="10"
     inkscape:pageopacity="0"
     inkscape:pageshadow="2"
     inkscape:window-width="1335"
     inkscape:window-height="850"
     id="namedview20"
     showgrid="false"
     fit-margin-top="0"
     fit-margin-left="0"
     fit-margin-right="0"
     fit-margin-bottom="0"
     inkscape:zoom="18.172644"
     inkscape:cx="8.1204179"
     inkscape:cy="6.8401556"
     inkscape:window-x="0"
     inkscape:window-y="23"
     inkscape:window-maximized="0"
     inkscape:current-layer="svg18" />
  <g
     fill="none"
     fill-rule="evenodd"
     id="g16"
     transform="matrix(0.86882038,0,0,0.98238421,-1.5308615,0.05430816)">
    <path
       d="m 7.0972,-0.054454 -5.3352,24.233 h 19.696 l -2.1785,-9.6934 -2.4008,3.5214 0.80028,3.7487 h -12.138 l 4.1792,-19.387 h 3.779 l 0.48906,2.4233 c 0.68373,-0.65524 1.567,-1.1666 2.5787,-1.4768 0.07483,-0.0229 0.14593,-0.055131 0.2223,-0.075728 -0.06037,-0.19186 -0.6669,-3.2943 -0.6669,-3.2943 h -9.0255 z"
       fill="#3b3f45"
       stroke-width="1.313"
       id="path10" />
    <polygon
       transform="matrix(1.2702,0,0,1.2347,-3.7536,-2.2467)"
       points="13.094,17 19.188,6.4375 17.719,5.5938 11.125,17 "
       fill="#3b3f45"
       id="polygon12" />
    <path
       d="m 18.129,11.311 c -1.3334,0.35727 -2.7039,-0.43398 -3.0611,-1.7673 -0.35727,-1.3334 0.43398,-2.7039 1.7673,-3.0611 1.3334,-0.35727 2.7039,0.43398 3.0611,1.7673 0.35727,1.3334 -0.43398,2.7039 -1.7673,3.0611 z"
       fill="#3b3f45"
       id="path14" />
  </g>
</svg>
