<?xml version="1.0" encoding="UTF-8" standalone="no"?>
<svg
   xmlns="http://www.w3.org/2000/svg"
   version="1.1"
   viewBox="0 0 8 8"
   width="8"
   height="8"
   >
  <g transform="translate(-185,-295)">
    <path
       d="m 185,295 v 1 c 0,0 0,0.5 0.5,1 l 2,2 -2,2 c -0.5,0.5 -0.5,1 -0.5,1 v 1 h 1 c 0.5,0 1,-0.5 1,-0.5 l 2,-2 2,2 c 0,0 0.5,0.5 1,0.5 h 1 v -1 c 0,0 0,-0.5 -0.5,-1 l -2,-2 2,-2 c 0.5,-0.5 0.5,-1 0.5,-1 v -1 h -1 c -0.5,0 -1,0.5 -1,0.5 l -2,2 -2,-2 c 0,0 -0.5,-0.5 -1,-0.5 z"
       fill="#3b3f45"/>
  </g>
</svg>
